<svg width="860" height="620" viewBox="0 0 860 620" fill="none" xmlns="http://www.w3.org/2000/svg">
  <rect width="860" height="620" rx="32" fill="url(#bg)"/>
  <ellipse cx="430" cy="564" rx="282" ry="28" fill="#6B7280" fill-opacity="0.18"/>
  <rect x="160" y="102" width="540" height="332" rx="22" fill="#1F2937"/>
  <rect x="184" y="124" width="492" height="286" rx="14" fill="#EAF1FF"/>
  <rect x="220" y="170" width="170" height="170" rx="85" fill="#FFFFFF"/>
  <path d="M305 205C281 205 261 225 261 249C261 273 281 293 305 293C329 293 349 273 349 249C349 225 329 205 305 205ZM305 224C319 224 330 235 330 249C330 263 319 274 305 274C291 274 280 263 280 249C280 235 291 224 305 224Z" fill="#3F5B8D"/>
  <path d="M304.7 168L324.7 211H284.7L304.7 168Z" fill="#3F5B8D"/>
  <circle cx="454" cy="255" r="82" fill="#FFF5FB"/>
  <path d="M454 195L467 233L507 233L475 256L488 295L454 272L420 295L433 256L401 233L441 233L454 195Z" fill="#D94693"/>
  <circle cx="604" cy="255" r="82" fill="#111827"/>
  <text x="548" y="268" fill="white" font-size="44" font-family="Arial, sans-serif" font-weight="700">NEXT</text>
  <path d="M124 450H736L782 514H78L124 450Z" fill="#A7B0BD"/>
  <path d="M64 500H796C810 500 822 511 824 525L829 544H31L36 525C38 511 50 500 64 500Z" fill="#D6DCE5"/>
  <defs>
    <linearGradient id="bg" x1="104" y1="82" x2="742" y2="564" gradientUnits="userSpaceOnUse">
      <stop stop-color="#F8FBFF"/>
      <stop offset="1" stop-color="#E5ECFF"/>
    </linearGradient>
  </defs>
</svg>
