<svg width="1200" height="760" viewBox="0 0 1200 760" fill="none" xmlns="http://www.w3.org/2000/svg">
  <rect width="1200" height="760" fill="#EEF2FF"/>
  <rect x="124" y="122" width="952" height="516" rx="32" fill="#111827"/>
  <path d="M236 242C236 220 254 202 276 202H492C514 202 532 220 532 242V458C532 480 514 498 492 498H276C254 498 236 480 236 458V242Z" fill="#0F172A"/>
  <path d="M600 238L648 286L600 334L552 286L600 238Z" fill="#D94693"/>
  <path d="M784 238L832 286L784 334L736 286L784 238Z" fill="#D94693"/>
  <path d="M968 238L1016 286L968 334L920 286L968 238Z" fill="#D94693"/>
  <path d="M648 286H736" stroke="#F9A8D4" stroke-width="18" stroke-linecap="round"/>
  <path d="M832 286H920" stroke="#F9A8D4" stroke-width="18" stroke-linecap="round"/>
  <rect x="282" y="252" width="204" height="18" rx="9" fill="#475569"/>
  <rect x="282" y="300" width="164" height="18" rx="9" fill="#475569"/>
  <rect x="282" y="348" width="176" height="18" rx="9" fill="#475569"/>
</svg>
